<?xml version="1.0" encoding="UTF-8" standalone="no"?>
<!DOCTYPE svg PUBLIC "-//W3C//DTD SVG 1.1//EN" "http://www.w3.org/Graphics/SVG/1.1/DTD/svg11.dtd">
<svg width="96" height="96" viewBox="0 0 6000 6000" version="1.2" baseProfile="tiny-ps" xmlns="http://www.w3.org/2000/svg" xmlns:xlink="http://www.w3.org/1999/xlink" xml:space="preserve" xmlns:serif="http://www.serif.com/" style="fill-rule:evenodd;clip-rule:evenodd;stroke-linejoin:round;stroke-miterlimit:2;">
<title>Lit Scaling</title>
    <rect width="6000" height="6000" style="fill:#181818;"/>
    <g id="small-logo" serif:id="small logo">
        <path d="M3947.13,2654.89l312.236,0c-0,0 49.728,-2.172 49.728,69.695l0,642.073c0,516.882 -225.963,712.711 -419.708,900.649l-0.774,-1550.16c-0,-40.53 17.988,-62.261 58.518,-62.261Z" style="fill:#e6471d;"/>
        <path d="M2845.84,4233.87l-0.767,-806.845c-0,-44.608 8.097,-62.261 58.518,-62.261l304.07,0c42.236,0 49.728,21.965 49.728,69.695c0,351.601 0.162,457.846 -0.165,809.448c36.967,0.452 74.137,-11.386 111.103,-24.972l-0.769,-1093.39c0,-40.53 12.814,-62.26 58.518,-62.26l302.785,-0c42.455,-0 49.728,17.816 49.728,69.694c0,408.933 0.897,817.865 0.951,1226.8c0,-0 -618.446,475.005 -1416.29,81.19c-377.235,-203.337 -659.185,-515.285 -671.185,-1009.5c-11.177,-460.33 86.778,-728.495 505.947,-1121.65c152.845,-131.465 308.725,-259.678 403.071,-453.821c56.654,-116.581 79.367,-248.814 47.378,-453.164c372.637,236.688 585.45,611.173 419.192,1092.95c-48.396,129.857 7.061,183.106 63.84,202.853c35.945,12.5 98.165,17.085 192.956,-63.785c256.49,-194.357 471.479,-397.013 645.93,-607.777l-184.98,-163.269l653.269,-217.518l-40.703,745.922l-182.142,-159.42c-265.287,290.389 -571.378,546.251 -903.323,780.236c-84.869,57.391 -171.476,111.886 -261.386,160.875c-2.756,1.552 -5.552,3.127 -8.57,4.076c-7.55,2.372 -15.115,5.302 -23.011,5.847c-19.635,1.357 -35.538,-0.478 -52.745,-8.838c-77.867,-37.83 -205.657,-158.6 -205.657,-158.6c-181.796,118.893 -310.008,274.379 -405.692,452.081c-90.661,202.328 -83.298,403.106 -11.773,569.569l-1.424,-326.238c-0,-40.53 7.258,-68.309 56.704,-68.309l284.374,-0c51.367,-0 49.728,30.628 49.728,69.695c-0,228.347 0.262,259.192 -0,487.539c28.993,19.028 76.267,30.785 112.793,33.148Z" style="fill:#e6471d;"/>
    </g>
</svg>
